<svg width="63" height="64"
     xmlns="http://www.w3.org/2000/svg" version="1.1">
<style>path {fill-opacity:1; stroke:none;}</style>
<path d="M 0,13L 0,15L 3,15L 4,14L 4,12L 4,10L 4,9L 2,8L 1,8L 0.7813,9.2813L 0.2813,11.7813Z" style="fill:rgb(30,140,254);"/>
<path d="M 2,17.3359L 0,18L 0,21L 2,23L 3,23L 4,22L 5,21L 5,20L 4,17L 3,17Z" style="fill:rgb(30,140,254);"/>
<path d="M 0,40L 2,40L 2.2344,39L 2.4844,38L 3.0488,35.8633L 3.752,33.5039L 4.5703,31.1406L 5,30L 5,29L 4,27L 2,27L 0.668,29L 0,30Z" style="fill:rgb(30,140,254);"/>
<path d="M 15,3L 15,1L 13.7188,0.7656L 11.2188,0.2656L 10,0L 8,0L 5.5313,1L 3,2L 2,3L 2,4L 3,6L 4,6L 6.2754,5.4053L 8.6191,5.4082L 11,6L 14,6Z" style="fill:rgb(30,140,254);"/>
<path d="M 7,10L 6,10L 5.0469,12.0625L 4,14L 4,15L 8,15L 8,11Z" style="fill:rgb(30,140,254);"/>
<path d="M 10,54L 9,54L 8,55L 8,59L 11,59L 11,55Z" style="fill:rgb(30,140,254);"/>
<path d="M 18,52L 19,51L 19,48L 18,47L 17,47L 16,48L 15,49L 15,50L 16,52Z" style="fill:rgb(30,140,254);"/>
<path d="M 20,14L 19,12L 18,11L 17,11L 16,12L 16,14L 17,16L 19,16L 20,15Z" style="fill:rgb(30,140,254);"/>
<path d="M 34,52L 21,52L 21,53L 34,53Z" style="fill:rgb(30,140,254);"/>
<path d="M 26,11L 28,10L 28,9L 26,8L 25,8L 22,9L 22,12L 24,12Z" style="fill:rgb(30,140,254);"/>
<path d="M 31,0L 26,0L 25,1L 24,2L 24,3L 25,4L 26,4L 28,3L 30,2L 31,1Z" style="fill:rgb(30,140,254);"/>
<path d="M 39,6L 41,6L 43,4.666L 44,4L 45,3L 46,2L 46,0L 44,0L 40.8613,0.4512L 37.5029,0.7744L 33.874,0.9463L 32,1L 31,2L 29,4L 29,6L 30,6L 32.3945,5.5491L 34.7266,5.3491L 35.8477,5.3958L 37.9844,5.7212Z" style="fill:rgb(30,140,254);"/>
<path d="M 42,27L 42,25L 38,25L 38,26L 39,27Z" style="fill:rgb(30,140,254);"/>
<path d="M 38,41L 38,42L 38.7852,43.9033L 39.1104,45.8799L 38.7852,47.9268L 38,50L 38,51L 40,51L 42.3223,50.0742L 44.752,49.3223L 46,49L 47,48L 48,47L 48,46L 46.6445,43.7188L 45.5039,41.2734L 45,40L 43,40L 41.7656,40.2656L 39.2656,40.7656Z" style="fill:rgb(30,140,254);"/>
<path d="M 46,56L 43.332,55.334L 42,55L 41,55L 40,56L 40,58L 41,58L 42,58L 44,58L 46,57Z" style="fill:rgb(30,140,254);"/>
<path d="M 47,64L 47,62L 45,62L 44,62L 42,62L 41,63L 41,64Z" style="fill:rgb(30,140,254);"/>
<path d="M 50,39L 51,38L 51,37L 49,35L 48,35L 47.2656,36.0039L 45.7656,38.0039L 45,39L 45,41L 46,41L 47.333,40.332Z" style="fill:rgb(30,140,254);"/>
<path d="M 46,26L 46,27L 52,27L 54,26L 54,23L 53,23L 50,24L 47,25Z" style="fill:rgb(30,140,254);"/>
<path d="M 63,43L 61,43L 58.6807,42.9055L 56.708,42.2202L 55.2002,40.8196L 54,39L 53,39L 52,41L 52,42L 52.1582,43.166L 52.3164,45.5L 52.1582,47.834L 52,49L 52,51L 54,52L 55,52L 57.3711,51.3945L 59.7852,51.0742L 61,51L 63,50Z" style="fill:rgb(30,140,254);"/>
<path d="M 57,14L 56,16L 55,18L 55,21L 56,22L 57,22L 58,21L 59,19L 59,14Z" style="fill:rgb(30,140,254);"/>
<path d="M 63,41L 63,37L 61,37L 59,37.5156L 57,38L 57,40L 59,41Z" style="fill:rgb(30,140,254);"/>
<path d="M 48,34L 48.666,33L 50,31L 50,28L 46.7539,27.998L 43.043,27.9785L 39.2188,27.8906L 37.4531,27.7734L 35.7881,27.5992L 34.2285,27.3266L 31.4111,26.5265L 30.48,25.7692L 29.9546,24.4358L 30.3542,22.4422L 32.8369,21.5066L 36.2373,21.1372L 40.0439,21.0236L 44.0039,21.002L 48,21L 52,21L 54,20L 55,19L 56,18L 57,16L 58,14L 58,11L 24,11L 22,12L 21,13L 20,14L 19,15L 18,16L 17,19L 16,22L 15,25L 14,28L 13.5,29.5L 12.5,32.498L 11.5,35.4785L 10.5,38.3906L 9.5,41.1563L 8.5,43.7461L 8,45L 7.5,46.4121L 6.5,49.1582L 5.5,51.7461L 5,53L 5,56L 8,56L 10,54.666L 11,54L 12,53L 12.5703,52L 13.752,50L 15,48L 16.0923,46.002L 16.6908,45.0117L 17.983,43.0664L 18.7331,42.1523L 20.3418,40.4287L 22.1689,38.9482L 24.2588,37.7637L 26.7379,36.9043L 29.7314,36.3716L 33.2227,36.1118L 37.043,36.0215L 41.0039,36.002L 45,36L 47,35Z" style="fill:rgb(254,253,254);"/>
<path d="M 35,49L 36,48L 37,47L 38,46L 39,45L 40,43L 40,42L 25,42L 23,43L 22,44L 21,45L 20,46L 19,48L 19,50L 22,50L 23.5078,49.7539L 26.6563,49.3438L 30,49.1094L 33.3516,49.0195Z" style="fill:rgb(254,253,254);"/>
<path d="M 28.9855,42.247L 31.5542,41.7471L 34.6563,41.3438L 38,41.1094L 41.3516,41.0195L 43,41L 45,40L 46,39L 46,38L 43,38L 41.4668,38.2256L 38.334,38.6123L 35.0518,38.854L 31.5957,38.9619L 28,39L 25,40L 23,40.9482L 21,41.7969L 19,42.4717L 17,43L 16,44L 15,46L 15,49L 16,49L 17.332,48.666L 20,48L 20.7925,47.1152L 22.4454,45.4419L 24.2889,44.0356L 26.5751,42.9629L 29.7163,42.1274Z" style="fill:rgb(31,139,254);"/>
<path d="M 19,50L 19,52L 31,52L 31,51L 29.752,50.624L 27.3223,49.8389L 25,49L 22,49Z" style="fill:rgb(31,139,254);"/>
<path d="M 33,63L 24,63L 24,64L 33,64Z" style="fill:rgb(31,139,254);"/>
<path d="M 26,24L 25,24L 25,27L 39,27L 41,26.9961L 42,27L 46,27L 47.376,26.3633L 50.1611,25.1406L 53,24L 54,23L 54,22L 52,22L 50.5469,22.4102L 47.5625,23.1367L 44.3398,23.6348L 42.5625,23.7617L 40.7168,23.8477L 37.0488,23.9609L 33.6133,23.9941L 32,24L 29.5703,24.1406L 27.1816,24.0869Z" style="fill:rgb(31,139,254);"/>
<path d="M 39,43L 39,47L 41,47L 41,43Z" style="fill:rgb(31,139,254);"/>
<path d="M 34,10L 34,11L 58,11L 58,10Z" style="fill:rgb(236,244,254);"/>
<path d="M 51,29L 51,27L 31,27L 31,28L 34.2461,28.002L 37.957,28.0215L 41.7813,28.1094L 45.3125,28.3438L 48.4922,28.7539L 50,29Z" style="fill:rgb(205,227,254);"/>
<path d="M 23,37L 21,38L 20,39L 19,40L 18,41L 17,42L 17,43L 18,44L 20,44L 21.0547,43.3892L 23.2334,42.2192L 25.5801,41.2175L 26.8364,40.8625L 29.3535,40.3228L 31.8071,40.069L 33,40L 34.5078,39.7539L 37.6836,39.3418L 41.1758,39.0879L 43,39L 44.2344,38.7344L 46.7344,38.2344L 48,38L 48,35L 45,35L 43.8203,35.4102L 41.2734,36.1367L 38.2695,36.6348L 34.7773,36.8887L 30.957,36.9785L 26.9961,36.998Z" style="fill:rgb(29,138,254);"/>
<path d="M 25,49L 25,50L 27,51L 29.668,51.666L 31,52L 36,52L 38,51L 39,50L 40,49L 40,47L 39,45L 38,45L 36.8906,45.7734L 34.5254,47.1592L 31.7715,48.1484L 30.2061,48.4648L 26.8203,48.8906Z" style="fill:rgb(29,138,254);"/>
<path d="M 28,21L 27,22L 26,23L 26,25L 32,25L 33,25L 35,25L 36.5078,24.7539L 39.6875,24.3438L 43.2188,24.1094L 47.0391,24.0195L 49,24L 50.4141,23.5703L 53.2227,22.752L 56,22L 56,21L 55,19L 54,19L 52.9609,19.4805L 50.7773,20.3887L 49.5234,20.7617L 46.7734,21.3828L 43.5664,21.7402L 40.0859,21.8242L 36.6641,21.6445L 33.5059,21.2451L 32,21Z" style="fill:rgb(29,138,254);"/>
<path d="M 59,9L 30,9L 30,10L 59,10Z" style="fill:rgb(29,138,254);"/>
<path d="M 26,10L 26,11L 34,11L 34,10Z" style="fill:rgb(218,234,254);"/>
<path d="M 38,41L 30,41L 30,42L 38,42Z" style="fill:rgb(116,181,254);"/>
<path d="M 32,21L 32,22L 50,22L 50,21Z" style="fill:rgb(66,155,254);"/>
<path d="M 25,36L 25,37L 43,37L 43,36Z" style="fill:rgb(50,147,254);"/>
<path d="M 13,49L 12.4297,50L 11.7944,50.9741L 11.0293,51.8345L 9.7218,52.2369L 7.9867,51.6256L 7.8236,49.3434L 8.5485,46.785L 9.5044,44.2476L 10,43L 11,40L 12,37L 13,34L 14,31L 15,28L 16,25L 17,22L 17.5,20.5L 18.3906,17.8359L 19.4609,15.7344L 20.2305,14.8672L 21.1152,13.9336L 22.8518,12.2227L 23.7803,11.5823L 25.885,10.5957L 28.5306,10.1248L 30,10L 31.5078,9.7539L 34.6875,9.3438L 38.2188,9.1094L 40.0684,9.0654L 41.8877,9.0396L 45.4854,9.0259L 49.0127,9.1489L 50.6753,9.3943L 52.1921,9.8114L 54.8516,11.0061L 55.7583,11.9324L 57.0996,13.9897L 57.5056,16.274L 57.0142,18.4581L 55.7458,20.3524L 54,22L 53.2656,23.2656L 51.7656,25.7656L 51,27L 50.4297,28L 49.248,30L 48,32L 47,34L 46.6573,36.2568L 45.9247,38.5381L 44.6495,40.7959L 43,43L 43,44L 42.8867,46.5073L 42.3555,47.4177L 40.8027,48.9297L 38.5313,50.0313L 37.2656,50.5156L 36.0469,50.9629L 33.5859,51.7715L 32.2725,52.0679L 29.5342,52.5073L 26.6719,52.6094L 25.2842,52.478L 23.9597,52.2694L 22.6804,51.9794L 20.2009,51.2241L 17.9226,50.1218L 15.9222,48.7424L 15,48L 14,48ZM 63,50L 60.7549,49.0332L 58.8486,47.7441L 58,47L 56.9902,46.7344L 55.1211,45.9492L 53.5,44.75L 54,46L 56,46L 58.6689,45.9961L 60,46L 61,46L 62.332,43.999L 63,43L 63,41L 61.8926,40.4629L 59.8262,39.3018L 58,38L 58,39L 60,40L 61,40L 62.332,37.999L 63,37L 63,0L 46,0L 44.311,1.5063L 42.3931,2.627L 40.2427,3.0884L 38,3L 37,3L 36,3L 35,3L 32.687,3.3174L 30.4631,3.147L 28.4678,2.2744L 26.7737,0.8296L 26,0L 10,0L 9.3145,1.21L 7.4365,2.4868L 5.0361,2.0581L 2.9141,0.7813L 2,0L 0,0L 0,13L 2,13L 2.375,11.8125L 1.5859,12.8774L 0,15L 0,18L 0,21L 0,30L 2,31L 3,31L 3,29.5L 2,32L 1.4521,34.9043L 0.7852,37.5703L 0,40L 0,64L 24,64L 26.6465,63.6563L 29.2461,63.5693L 31.7637,63.8076L 33,64L 41,64L 43,63.7036L 45,63.7031L 47,64L 63,64ZM 6,14.25L 7,14L 7,12L 6,12ZM 42.916,56.998L 43.875,56.5L 41,57L 41,58Z" style="fill:rgb(32,140,254);"/>
<path d="M 2,2L 6,2L 8,1L 8,0L 2,0Z" style="fill:rgb(32,140,254);"/>
<path d="M 28,4L 31,4L 31.8945,3.3633L 33.8516,2.3164L 36.1484,1.8164L 38.6914,1.8633L 40,2L 41,2L 44,1L 44,0L 31,0L 30,0.334L 28,1Z" style="fill:rgb(32,140,254);"/>
</svg>
